<?xml version="1.0" standalone="no"?>
<!DOCTYPE svg PUBLIC "-//W3C//DTD SVG 20010904//EN"
 "http://www.w3.org/TR/2001/REC-SVG-20010904/DTD/svg10.dtd">
<svg version="1.0" xmlns="http://www.w3.org/2000/svg"
 width="1024.000000pt" height="1024.000000pt" viewBox="0 0 1024.000000 1024.000000"
 preserveAspectRatio="xMidYMid meet">

<g transform="translate(0.000000,1024.000000) scale(0.100000,-0.100000)"
fill="#000000" stroke="none">
<path d="M4904 8212 c19 -8 19 -9 0 -16 -10 -4 -38 -9 -61 -10 -24 -1 -48 -8
-55 -15 -11 -11 -10 -13 3 -8 9 3 16 0 16 -8 0 -7 -8 -10 -17 -8 -8 2 -29 -6
-45 -19 l-30 -23 65 -6 c47 -4 26 -6 -75 -7 -296 -2 -515 -112 -698 -352 -42
-56 -63 -96 -93 -180 -13 -36 -23 -58 -24 -49 0 9 7 36 15 59 18 50 18 50 5
50 -5 0 -10 -8 -10 -17 0 -10 -7 -27 -15 -37 -14 -19 -15 -18 -16 10 -1 20 -3
23 -6 9 -3 -11 -12 -25 -20 -32 -9 -7 -13 -19 -9 -28 3 -9 2 -14 -3 -10 -5 3
-11 -1 -14 -7 -3 -7 -3 7 0 32 3 34 2 41 -6 30 -6 -8 -11 -31 -11 -50 -1 -19
-5 -53 -9 -75 -5 -24 -7 9 -3 88 4 111 3 127 -11 127 -8 0 -22 3 -30 6 -14 5
-16 2 -53 -97 -14 -39 -30 -150 -99 -689 -25 -195 -54 -418 -65 -495 -10 -78
-26 -204 -35 -280 -9 -77 -27 -212 -40 -300 -14 -88 -32 -218 -40 -290 -9 -71
-24 -181 -35 -242 -10 -62 -28 -208 -40 -325 -12 -117 -34 -316 -50 -443 -16
-126 -37 -291 -45 -365 -9 -74 -22 -178 -30 -230 -25 -165 -35 -250 -35 -292
0 -23 -3 -38 -7 -34 -4 3 -6 28 -6 54 1 26 -1 39 -4 29 -2 -9 -9 -15 -14 -12
-5 3 -18 1 -29 -5 -16 -9 -25 -8 -36 0 -7 7 -12 16 -9 20 3 4 -3 14 -12 21
-14 12 -15 11 -9 -9 4 -13 3 -28 -2 -35 -5 -7 -13 -48 -17 -92 -6 -75 -39
-317 -66 -483 -8 -49 -16 -71 -24 -68 -9 3 -10 -6 -5 -35 6 -33 5 -37 -7 -28
-7 7 -11 14 -8 17 3 3 -2 13 -10 22 -41 45 -55 129 -80 465 -14 182 -34 411
-45 510 -10 99 -22 260 -26 358 -3 97 -9 177 -13 177 -5 0 -6 -259 -1 -350 3
-53 2 -58 -17 -63 -17 -4 -17 -5 0 -6 9 0 17 -5 17 -10 0 -5 -8 -11 -17 -13
-16 -3 -19 13 -30 152 l-11 155 5 -160 c2 -88 11 -214 18 -281 8 -66 21 -239
30 -385 30 -506 35 -536 106 -645 51 -79 116 -139 188 -172 54 -25 56 -25 253
-19 117 3 196 1 192 -4 -3 -5 -13 -9 -24 -9 -22 0 -260 -56 -267 -63 -5 -5 14
-47 26 -57 14 -11 52 -101 47 -109 -4 -5 0 -11 6 -14 27 -9 -88 -19 -166 -14
-154 10 -277 68 -396 186 -70 69 -95 103 -129 171 -23 47 -48 117 -55 155 -14
71 -38 355 -56 675 -5 96 -12 193 -15 215 -3 22 -12 177 -20 345 -9 168 -20
377 -25 465 -11 184 -11 385 -1 298 7 -55 23 -84 35 -64 4 6 25 11 46 11 21 0
42 5 45 10 3 6 15 10 25 10 29 0 50 28 51 68 1 21 3 29 6 18 3 -11 11 -26 19
-34 12 -11 14 -10 14 7 0 23 39 31 41 9 1 -7 5 5 10 26 11 45 2 56 -43 56 -18
0 -31 -8 -39 -21 -8 -16 -13 -18 -19 -9 -4 7 -13 9 -19 6 -6 -4 -11 -4 -11 1
0 10 -142 9 -159 -2 -8 -4 -17 -2 -22 6 -6 10 -35 13 -121 11 -133 -3 -169
-12 -185 -49 -16 -34 -18 -399 -3 -408 6 -3 10 -15 10 -26 0 -11 7 -27 15 -35
8 -9 15 -11 15 -6 0 6 7 13 17 16 29 12 81 -57 88 -117 12 -95 10 -916 -2
-1007 -9 -61 -9 -120 -2 -205 5 -66 12 -172 15 -235 4 -96 10 -127 35 -190 16
-41 30 -91 32 -112 1 -20 6 -34 11 -30 5 3 7 -5 4 -16 -4 -12 -2 -22 2 -22 8
0 15 -11 56 -88 10 -17 21 -32 26 -32 4 0 8 -5 8 -12 0 -18 91 -101 156 -143
167 -107 279 -144 534 -175 206 -26 237 -27 375 -14 77 7 225 15 328 17 193 5
240 14 181 37 -16 7 -55 24 -86 38 l-57 27 32 8 c18 5 243 11 500 14 l468 5
22 47 c31 66 94 125 155 145 59 20 65 31 60 117 l-3 54 -160 17 c-496 54 -885
108 -984 138 -194 57 -381 259 -436 471 -34 126 -16 317 135 1459 22 168 47
361 55 430 9 69 25 190 35 270 11 80 29 222 40 315 49 414 123 989 155 1205
19 129 44 298 55 375 11 77 25 158 31 180 28 105 140 265 242 346 112 90 280
148 427 148 54 1 327 -27 875 -89 761 -85 989 -110 1085 -120 271 -28 665 -82
719 -99 134 -42 285 -163 378 -304 121 -185 150 -330 123 -618 -5 -57 -19
-198 -30 -314 -23 -249 -59 -688 -80 -970 -5 -66 -18 -158 -29 -205 -12 -47
-21 -91 -21 -97 0 -9 16 -13 49 -13 49 0 49 0 79 53 38 68 91 114 148 129 l46
13 -7 45 c-4 25 -11 49 -16 55 -12 12 -12 246 1 505 18 382 12 1181 -9 1188
-6 2 -11 10 -11 18 0 8 -5 14 -10 14 -6 0 -9 4 -8 9 2 5 -6 17 -18 27 -12 11
-27 37 -34 59 -7 22 -24 59 -37 82 -14 23 -21 48 -17 54 4 7 3 9 -3 6 -5 -3
-17 7 -27 24 -9 16 -15 29 -12 29 6 0 -68 84 -114 129 -19 19 -69 57 -110 84
-41 28 -67 47 -57 43 36 -12 37 6 2 30 -20 13 -40 22 -45 19 -4 -3 -11 2 -14
11 -4 9 -13 14 -21 10 -8 -3 -15 -1 -15 4 0 5 -10 10 -22 12 -13 2 -22 9 -21
15 1 6 -12 15 -29 18 -18 4 -38 14 -46 22 -21 20 -278 11 -300 -12 -3 -3 12
-5 34 -5 21 0 46 -5 54 -10 10 -7 -4 -8 -45 -4 -62 7 -110 23 -70 24 17 0 17
2 -5 13 -15 8 -61 17 -104 20 -43 4 -96 12 -117 19 -29 8 -45 8 -64 0 -24 -11
-59 -6 -51 7 2 3 -14 4 -37 2 -37 -4 -39 -5 -17 -12 23 -6 23 -7 3 -8 -12 -1
-25 3 -28 9 -4 6 -13 5 -25 -3 -16 -9 -24 -9 -40 1 -23 14 -50 16 -50 4 0 -10
-74 -6 -230 14 -63 8 -132 15 -155 15 -30 2 -33 3 -12 6 15 2 27 8 27 13 0 6
-12 12 -27 16 -16 3 -34 7 -41 10 -8 2 -10 -1 -6 -8 5 -8 2 -9 -10 -5 -10 4
-24 7 -31 7 -7 0 -12 8 -11 18 1 12 -8 18 -33 20 -19 2 -40 10 -48 18 -8 8
-24 14 -36 14 -12 0 -45 9 -74 20 -29 11 -60 17 -69 13 -12 -4 -15 -3 -10 5 4
7 1 12 -8 12 -22 0 -20 17 2 24 9 3 0 4 -20 3 -21 -2 -35 -1 -32 2 3 3 -44 13
-103 23 -188 31 -663 69 -619 50z m2055 -326 c-10 -9 -79 -14 -79 -5 0 5 19 9
42 9 23 0 39 -2 37 -4z m-132 -12 c-3 -3 -12 -4 -19 -1 -8 3 -5 6 6 6 11 1 17
-2 13 -5z m-3050 -506 c-3 -7 -5 -2 -5 12 0 14 2 19 5 13 2 -7 2 -19 0 -25z
m4200 -475 c-2 -16 -4 -5 -4 22 0 28 2 40 4 28 2 -13 2 -35 0 -50z m-5760
-2400 c-3 -10 -5 -2 -5 17 0 19 2 27 5 18 2 -10 2 -26 0 -35z m516 -482 c2
-10 1 -25 -4 -32 -6 -10 -9 -4 -9 19 0 36 5 42 13 13z m4 -93 c-3 -8 -6 -5 -6
6 -1 11 2 17 5 13 3 -3 4 -12 1 -19z"/>
<path d="M3760 8073 c-134 -13 -303 -35 -345 -45 -27 -7 -55 -11 -61 -10 -6 1
-74 -5 -150 -13 -169 -20 -167 -19 -181 -28 -6 -4 -19 -4 -30 0 -10 3 -15 3
-11 -2 4 -4 -3 -14 -17 -22 -14 -7 -37 -19 -51 -27 -23 -12 -24 -15 -7 -19 16
-4 16 -5 0 -6 -9 0 -31 -13 -47 -28 -23 -20 -27 -29 -18 -36 9 -5 3 -7 -15 -4
-15 2 -25 2 -22 -1 3 -3 -19 -16 -49 -28 -116 -47 -233 -143 -346 -283 -36
-44 -71 -80 -77 -81 -7 0 -13 -6 -13 -14 0 -9 -14 -15 -40 -18 -23 -2 -40 1
-40 7 -1 40 -51 -105 -71 -206 -19 -98 -4 -987 26 -1499 9 -140 14 -290 13
-334 -2 -72 -3 -76 -15 -50 l-12 29 -2 -35 c-1 -19 -1 -42 0 -50 0 -10 -1 -11
-5 -2 -3 6 -10 12 -15 12 -6 0 -7 -4 -4 -10 4 -6 -8 -10 -27 -11 -27 0 -29 -2
-13 -8 l20 -8 -20 -4 c-42 -9 49 -40 145 -49 157 -16 140 -28 140 108 0 64 -5
171 -10 237 -25 295 -64 1316 -58 1510 4 127 8 148 37 226 104 280 309 444
606 484 126 17 285 35 545 60 279 28 245 17 298 99 25 39 63 92 85 119 l39 47
-74 -2 c-40 0 -89 -3 -108 -5z"/>
<path d="M2928 7973 c7 -3 16 -2 19 1 4 3 -2 6 -13 5 -11 0 -14 -3 -6 -6z"/>
<path d="M6100 7970 c-11 -7 -4 -10 25 -10 29 0 36 3 25 10 -8 5 -19 10 -25
10 -5 0 -17 -5 -25 -10z"/>
<path d="M7555 7720 c3 -5 8 -10 11 -10 2 0 4 5 4 10 0 6 -5 10 -11 10 -5 0
-7 -4 -4 -10z"/>
<path d="M7583 7715 c0 -8 4 -12 9 -9 5 3 6 10 3 15 -9 13 -12 11 -12 -6z"/>
<path d="M4503 7688 c-11 -13 -33 -42 -47 -66 -38 -60 -219 -444 -271 -573
l-42 -106 93 -12 c51 -6 97 -11 103 -11 5 0 17 22 26 50 9 27 20 52 23 54 13
8 264 -32 276 -44 6 -6 13 -34 16 -63 l5 -52 109 -8 c59 -5 110 -6 112 -4 9 9
-156 744 -179 799 -17 39 -24 42 -137 53 -60 6 -67 4 -87 -17z m121 -378 c13
-63 22 -116 21 -118 -7 -8 -185 11 -185 19 0 5 28 64 61 132 71 141 67 142
103 -33z"/>
<path d="M6503 7543 c9 -2 23 -2 30 0 6 3 -1 5 -18 5 -16 0 -22 -2 -12 -5z"/>
<path d="M6588 7533 c7 -3 16 -2 19 1 4 3 -2 6 -13 5 -11 0 -14 -3 -6 -6z"/>
<path d="M6648 7523 c7 -3 16 -2 19 1 4 3 -2 6 -13 5 -11 0 -14 -3 -6 -6z"/>
<path d="M6883 7453 c-13 -22 -19 -43 -16 -47 4 -4 1 -11 -7 -16 -9 -6 -10
-10 -3 -10 6 0 15 5 18 10 3 6 16 10 28 9 21 0 21 -1 2 -9 -16 -7 -17 -9 -3
-9 9 -1 19 3 22 8 3 5 15 7 27 4 15 -4 17 -8 8 -14 -8 -5 0 -8 21 -7 65 0 222
-32 277 -57 54 -25 137 -87 180 -135 39 -44 86 -141 87 -181 1 -38 12 -45 32
-20 9 12 12 9 18 -13 4 -15 4 -31 1 -36 -3 -5 -1 -11 4 -14 15 -10 22 72 11
142 -27 173 -164 330 -336 385 -55 18 -149 32 -269 42 l-80 7 -22 -39z"/>
<path d="M2862 7440 c-34 -5 -58 -15 -67 -26 -14 -20 -111 -325 -166 -524 -17
-63 -42 -153 -55 -199 -13 -47 -22 -86 -21 -87 4 -4 201 16 206 21 2 3 9 33
15 67 l11 63 145 8 c164 10 161 11 182 -71 10 -42 12 -43 42 -38 17 3 60 8 96
11 36 3 75 8 88 11 l22 4 -20 38 c-11 20 -53 111 -94 202 -99 222 -234 497
-252 515 -16 16 -47 17 -132 5z m73 -267 c3 -16 24 -66 46 -112 21 -46 39 -90
39 -97 0 -11 -21 -14 -90 -14 -64 0 -90 3 -90 12 0 25 71 238 79 238 5 0 12
-12 16 -27z"/>
<path d="M7429 6873 c-2 -4 -30 -32 -61 -60 -31 -29 -54 -53 -50 -53 14 1 127
108 121 115 -4 3 -9 3 -10 -2z"/>
<path d="M4405 6796 c-16 -7 -45 -27 -63 -44 -18 -17 -45 -35 -60 -41 -26 -11
-26 -11 8 -6 23 3 44 16 60 35 31 38 94 61 129 48 35 -12 76 -49 101 -90 31
-51 24 -53 -27 -9 -51 45 -80 57 -118 47 -29 -7 -105 -72 -105 -90 0 -7 -14
-10 -40 -8 -54 5 -94 -12 -135 -61 -40 -46 -52 -44 -36 6 14 41 53 80 101 101
19 8 29 15 22 16 -18 0 -74 -29 -93 -49 -34 -36 -69 -130 -69 -187 0 -43 26
-114 53 -142 28 -30 89 -62 119 -62 13 0 41 10 63 21 l40 22 -47 -51 c-57 -61
-68 -94 -42 -123 55 -61 172 -82 247 -45 22 11 41 25 44 33 3 8 -1 40 -9 72
l-14 58 33 -20 c68 -39 167 -11 217 62 67 96 54 256 -24 296 l-30 15 25 -36
c23 -34 33 -74 19 -74 -4 0 -24 16 -45 35 -48 43 -79 51 -119 32 -36 -18 -37
-10 -9 45 38 74 5 147 -86 189 -47 22 -69 23 -110 5z"/>
<path d="M7285 6740 c-3 -6 1 -7 9 -4 18 7 21 14 7 14 -6 0 -13 -4 -16 -10z"/>
<path d="M7079 6533 c-13 -16 -12 -17 4 -4 9 7 17 15 17 17 0 8 -8 3 -21 -13z"/>
<path d="M2780 6470 c-11 -7 -6 -10 20 -10 27 0 50 -12 99 -52 50 -40 67 -49
80 -41 36 23 18 47 -54 74 -89 34 -126 41 -145 29z"/>
<path d="M3105 6469 c-18 -8 -18 -9 4 -5 36 7 81 -16 127 -65 45 -49 64 -79
64 -103 0 -28 -26 -17 -58 23 -32 40 -85 71 -121 71 -12 0 -43 -20 -69 -44
-72 -66 -112 -81 -112 -40 0 7 -19 27 -42 44 -58 43 -116 42 -174 -2 -54 -42
-77 -79 -68 -113 4 -15 2 -25 -4 -25 -17 0 -42 42 -42 69 0 35 37 107 67 131
14 11 21 20 16 20 -18 0 -72 -66 -92 -113 -43 -99 -19 -200 67 -286 104 -103
302 -261 327 -261 46 0 298 280 346 385 40 86 16 179 -65 253 -62 57 -130 81
-171 61z"/>
<path d="M5740 6430 c-97 -31 -178 -86 -460 -310 -52 -42 -160 -125 -240 -185
-240 -179 -306 -248 -375 -390 -64 -130 -78 -202 -72 -360 3 -101 9 -142 26
-185 24 -62 25 -70 11 -70 -5 0 -10 9 -10 21 0 11 -4 17 -10 14 -18 -11 -10
-56 25 -137 35 -81 136 -218 160 -218 8 0 17 -15 20 -32 4 -18 12 -39 18 -46
8 -10 5 -19 -11 -35 -12 -12 -22 -19 -22 -15 0 4 7 13 15 22 9 8 11 17 6 21
-6 3 -19 -16 -31 -42 -11 -26 -28 -56 -37 -66 -16 -17 -16 -17 1 -11 16 6 17
5 5 -15 -8 -12 -19 -19 -26 -17 -8 3 -10 -1 -6 -11 4 -11 3 -14 -6 -9 -7 5
-36 -19 -79 -65 -111 -120 -321 -322 -422 -407 -53 -44 -114 -104 -138 -134
-47 -62 -142 -154 -154 -150 -4 1 -8 -2 -8 -8 0 -5 -7 -7 -15 -4 -8 4 -15 1
-15 -6 0 -6 -4 -9 -9 -6 -5 3 -11 -4 -14 -16 -4 -12 -8 -20 -10 -18 -6 7 10
211 22 285 5 33 13 98 16 145 3 47 17 175 30 285 34 285 51 538 37 543 -7 2
-12 11 -13 20 -1 11 -4 8 -10 -8 -6 -18 -7 -7 -4 35 3 37 1 54 -4 45 -9 -15
-40 -220 -61 -400 -7 -52 -20 -153 -30 -225 -33 -230 -81 -687 -82 -777 0
-102 17 -162 71 -245 72 -110 157 -178 261 -211 38 -12 367 -53 620 -78 165
-16 346 -40 360 -49 10 -6 18 74 24 270 9 255 33 381 67 359 27 -16 48 -214
50 -471 0 -90 4 -163 7 -163 7 0 605 -60 987 -100 105 -10 306 -36 449 -56
231 -34 265 -36 324 -26 194 33 331 184 367 403 21 133 27 232 15 249 -9 13
-14 10 -36 -15 -21 -25 -18 -15 15 52 49 99 51 119 14 127 -72 15 -165 26
-173 21 -5 -3 -16 -29 -26 -58 -9 -28 -23 -65 -31 -80 -13 -26 -18 -28 -51
-22 -20 4 -74 11 -120 15 -47 5 -89 13 -93 17 -4 4 -12 45 -17 91 -6 46 -12
86 -15 88 -5 6 -107 21 -172 26 -39 3 -40 2 -47 -32 l-6 -35 1 40 c2 29 6 40
18 40 9 0 24 8 33 18 17 16 16 17 -4 17 -13 0 -24 9 -30 25 -8 22 -26 31 -53
26 -5 -1 -7 4 -4 11 2 7 11 12 20 10 8 -1 18 2 22 8 3 6 0 7 -9 4 -11 -4 -16
0 -16 10 0 9 -5 16 -11 16 -6 0 -9 -7 -5 -15 3 -8 3 -15 0 -15 -12 0 -64 35
-64 42 0 13 18 9 23 -4 3 -10 10 -8 23 5 17 16 17 17 1 11 -9 -3 -24 -1 -32 6
-8 6 -19 9 -25 5 -6 -4 -9 -1 -8 6 2 7 -8 15 -22 19 -25 7 -25 7 5 12 l30 5
-27 2 c-34 1 -37 18 -5 24 12 2 -4 3 -37 1 -51 -4 -57 -2 -46 11 13 16 9 18
-27 16 -14 -2 -24 5 -28 18 -3 12 -12 21 -18 21 -7 0 -4 5 6 11 9 5 17 16 17
24 0 11 -7 11 -36 3 -20 -5 -38 -7 -42 -4 -3 3 2 6 10 6 10 0 15 8 14 23 -1
19 -7 22 -35 20 -21 -1 -29 2 -21 7 7 4 10 12 6 18 -4 6 -1 16 7 23 20 19 5
115 -27 169 -14 25 -26 47 -26 50 0 3 31 4 68 2 70 -4 97 1 191 37 85 32 155
79 231 156 83 83 133 152 126 177 -2 10 0 16 5 12 5 -3 9 2 9 10 0 26 1 30 11
43 7 7 6 13 0 17 -6 4 -17 -7 -26 -24 -8 -16 -18 -30 -20 -30 -3 0 13 36 35
81 23 44 52 124 66 177 24 86 26 110 21 222 -5 135 -28 223 -84 319 -44 77
-167 231 -253 319 -62 64 -80 87 -75 102 5 16 2 19 -13 18 -20 -3 -132 113
-205 212 -114 155 -185 217 -295 256 -69 24 -179 31 -232 14z m171 -170 c54
-15 122 -80 273 -260 76 -91 193 -225 259 -298 143 -158 189 -216 229 -296 77
-153 76 -352 -4 -512 -43 -86 -93 -143 -171 -192 -111 -70 -166 -86 -297 -87
-112 0 -117 1 -190 36 -41 20 -95 52 -120 72 -24 20 -46 34 -48 32 -5 -5 55
-238 79 -301 24 -64 82 -174 111 -213 10 -13 18 -28 18 -32 0 -20 -121 -10
-529 46 -204 28 -251 40 -251 60 0 8 26 43 58 77 31 35 78 90 103 123 49 63
149 245 149 269 0 11 -23 4 -84 -25 -172 -80 -335 -68 -501 36 -105 67 -188
185 -221 318 -22 85 -15 230 16 312 48 128 127 213 357 385 73 55 211 163 309
240 97 77 196 152 221 166 83 49 162 64 234 44z m-1257 -1356 c3 -8 2 -12 -4
-9 -6 3 -10 10 -10 16 0 14 7 11 14 -7z m224 -408 c-10 -7 -14 -17 -10 -21 4
-5 1 -5 -5 -1 -18 10 -16 24 5 29 27 7 28 7 10 -7z m-68 -40 c0 -2 -7 -7 -16
-10 -8 -3 -12 -2 -9 4 6 10 25 14 25 6z m310 -24 c20 -9 19 -38 0 -34 -8 2
-12 0 -8 -3 4 -4 1 -20 -7 -36 -8 -15 -15 -37 -15 -47 0 -11 -19 -46 -43 -78
-55 -74 -212 -234 -229 -233 -10 0 -10 2 0 6 6 2 12 11 12 18 0 7 6 15 13 18
6 2 9 8 5 12 -5 5 -17 -2 -28 -15 l-20 -23 5 44 c5 42 4 43 -11 24 -16 -20
-16 -20 -9 3 4 15 1 32 -10 49 -17 25 -17 26 1 19 10 -4 15 -4 11 0 -4 4 1 16
10 26 10 11 13 18 8 17 -6 -1 -17 1 -25 4 -8 4 -27 11 -42 16 -29 11 -29 35
-1 56 8 6 15 20 16 33 1 16 8 22 27 22 19 0 22 2 10 9 -8 6 -17 8 -21 5 -4 -2
-11 1 -14 7 -5 6 0 10 11 9 31 -4 40 0 24 10 -21 13 -5 23 37 22 20 -1 41 2
47 6 22 17 94 34 114 28 11 -4 23 -2 27 4 7 11 81 13 105 2z m-327 -16 c4 -10
1 -13 -9 -9 -7 3 -14 9 -14 14 0 14 17 10 23 -5z m-23 -311 c0 -5 -5 -3 -10 5
-5 8 -10 20 -10 25 0 6 5 3 10 -5 5 -8 10 -19 10 -25z m1435 -85 c3 -6 -1 -7
-9 -4 -18 7 -21 14 -7 14 6 0 13 -4 16 -10z m-35 -40 c0 -5 -2 -10 -4 -10 -3
0 -8 5 -11 10 -3 6 -1 10 4 10 6 0 11 -4 11 -10z m-556 -296 c10 -26 7 -119
-5 -153 -13 -38 -32 -40 -47 -6 -14 30 -16 115 -3 115 5 0 14 14 21 30 14 33
25 38 34 14z m1389 -434 c61 0 61 -7 -7 -140 l-53 -106 -24 101 c-13 55 -26
113 -30 129 -7 28 -6 28 30 22 20 -3 57 -6 84 -6z m-175 -420 c13 -17 17 -27
8 -24 -11 4 -41 54 -33 54 2 0 13 -13 25 -30z m169 -26 c-3 -3 -12 -4 -19 -1
-8 3 -5 6 6 6 11 1 17 -2 13 -5z"/>
<path d="M5818 6099 c-23 -11 -40 -29 -44 -44 -3 -14 -10 -23 -14 -20 -5 3
-13 -3 -19 -12 -5 -10 -11 -17 -13 -15 -7 7 -56 -17 -60 -29 -3 -9 -6 -10 -11
-2 -4 7 5 17 23 25 16 7 30 16 30 20 0 4 12 14 28 22 15 8 22 15 16 16 -13 0
-90 -57 -264 -195 -69 -55 -183 -143 -255 -196 -71 -53 -141 -107 -155 -119
-22 -18 -22 -20 -3 -11 33 16 35 14 18 -19 -17 -33 -55 -42 -55 -13 0 31 -66
-45 -97 -111 -25 -55 -28 -72 -28 -166 0 -95 3 -111 28 -162 16 -32 51 -83 78
-113 160 -174 409 -156 606 44 40 41 75 72 78 69 8 -8 -12 -202 -31 -302 -19
-99 -73 -227 -131 -312 -51 -74 -62 -65 112 -90 61 -8 127 -18 148 -21 l39 -6
-22 42 c-38 75 -60 203 -70 411 -6 107 -14 218 -19 245 -5 28 -7 52 -6 53 2 2
42 -48 90 -112 90 -120 132 -158 229 -202 178 -81 409 2 496 179 61 125 60
261 -5 392 -36 72 -51 91 -320 393 -88 99 -200 225 -248 281 -48 55 -93 101
-100 101 -7 -1 -29 -10 -49 -21z m32 -3 c0 -3 -4 -8 -10 -11 -5 -3 -10 -1 -10
4 0 6 5 11 10 11 6 0 10 -2 10 -4z m-30 -20 c0 -2 -7 -7 -16 -10 -8 -3 -12 -2
-9 4 6 10 25 14 25 6z"/>
<path d="M4150 6229 c0 -5 5 -7 10 -4 6 3 10 8 10 11 0 2 -4 4 -10 4 -5 0 -10
-5 -10 -11z"/>
<path d="M4180 6221 c0 -6 4 -13 10 -16 6 -3 7 1 4 9 -7 18 -14 21 -14 7z"/>
<path d="M8300 5180 c0 -5 5 -10 11 -10 5 0 7 5 4 10 -3 6 -8 10 -11 10 -2 0
-4 -4 -4 -10z"/>
<path d="M7733 5053 c-30 -3 -40 -8 -37 -17 4 -10 -10 -15 -53 -20 -137 -14
-203 -9 -203 15 0 5 -11 9 -25 9 -31 0 -49 -54 -33 -103 5 -18 12 -38 14 -46
4 -11 8 -11 22 3 26 22 180 23 188 1 4 -8 12 -15 19 -15 20 0 55 -49 55 -77 0
-13 4 -22 9 -19 12 8 21 -28 21 -84 0 -33 3 -41 10 -30 13 21 13 -3 -4 -217
-8 -98 -17 -245 -21 -328 -3 -82 -10 -204 -15 -270 -5 -66 -14 -203 -20 -305
-6 -102 -17 -241 -24 -310 -8 -69 -17 -162 -21 -208 -9 -109 -27 -176 -71
-264 -71 -141 -224 -255 -414 -307 -92 -26 -135 -26 -314 -2 -77 11 -199 27
-271 35 -71 9 -197 25 -280 35 -140 19 -319 37 -580 61 -60 6 -166 19 -235 30
-69 10 -149 21 -177 24 l-53 5 0 -74 0 -73 34 -12 c19 -6 59 -29 90 -51 44
-31 62 -53 83 -99 l28 -60 382 0 c268 0 419 -4 510 -15 70 -8 211 -19 313 -25
102 -6 242 -15 313 -21 147 -12 177 -9 307 33 187 60 332 150 414 256 49 65
137 219 168 295 57 144 64 210 78 707 5 201 17 525 25 720 8 195 14 411 14
479 0 102 3 125 16 135 14 10 8 14 -38 29 -66 21 -129 84 -148 146 -7 23 -17
40 -23 39 -6 -1 -30 -3 -53 -5z"/>
<path d="M2712 4940 c0 -14 2 -19 5 -12 2 6 2 18 0 25 -3 6 -5 1 -5 -13z"/>
<path d="M8086 4851 c-4 -5 -2 -20 3 -32 8 -22 8 -22 13 9 4 30 -4 43 -16 23z"/>
<path d="M2673 4590 c0 -30 2 -43 4 -27 2 15 2 39 0 55 -2 15 -4 2 -4 -28z"/>
<path d="M2683 4430 c0 -41 2 -58 4 -37 2 20 2 54 0 75 -2 20 -4 3 -4 -38z"/>
<path d="M7045 4449 c-42 -10 -81 -40 -90 -70 -5 -16 -27 -28 -60 -35 -37 -7
-114 -38 -131 -53 -12 -10 -36 -45 -53 -79 -35 -70 -42 -154 -17 -214 19 -45
19 -103 -1 -87 -26 22 -12 -8 23 -49 29 -34 156 -149 199 -180 46 -33 65 -40
106 -36 58 4 89 14 89 28 0 6 5 4 10 -4 6 -10 10 -11 10 -2 0 6 9 12 21 12 11
0 17 5 14 10 -3 6 0 10 8 10 7 0 14 6 14 13 0 27 39 70 80 88 55 23 130 93
149 138 19 45 19 149 1 193 -17 39 -144 169 -151 154 -2 -6 -5 -5 -5 3 -1 7
-13 40 -27 72 -22 48 -34 62 -68 79 -46 22 -60 23 -121 9z m104 -74 c17 -20
31 -45 31 -56 0 -18 -5 -15 -34 15 -42 45 -73 46 -121 5 l-35 -31 0 26 c0 39
44 76 90 76 31 0 44 -7 69 -35z m-209 -75 c10 -5 23 -23 29 -40 l10 -31 -26
21 c-19 14 -40 20 -79 20 -45 0 -59 -5 -89 -31 -19 -17 -35 -26 -35 -19 0 20
41 71 64 80 29 12 103 12 126 0z m396 -85 c27 -18 58 -71 49 -86 -4 -5 -27 9
-52 31 -52 45 -76 49 -133 20 -54 -27 -51 -9 5 34 40 30 50 33 77 26 17 -5 41
-16 54 -25z m-576 -320 c13 -14 21 -25 18 -25 -2 0 -15 11 -28 25 -13 14 -21
25 -18 25 2 0 15 -11 28 -25z"/>
<path d="M6258 4123 c6 -2 18 -2 25 0 6 3 1 5 -13 5 -14 0 -19 -2 -12 -5z"/>
<path d="M6248 4073 c7 -3 16 -2 19 1 4 3 -2 6 -13 5 -11 0 -14 -3 -6 -6z"/>
<path d="M3202 3940 c0 -14 2 -19 5 -12 2 6 2 18 0 25 -3 6 -5 1 -5 -13z"/>
<path d="M6671 3944 c0 -11 3 -14 6 -6 3 7 2 16 -1 19 -3 4 -6 -2 -5 -13z"/>
<path d="M3060 3750 c0 -5 5 -10 10 -10 6 0 10 5 10 10 0 6 -4 10 -10 10 -5 0
-10 -4 -10 -10z"/>
<path d="M3166 3725 c-9 -26 -7 -32 5 -12 6 10 9 21 6 23 -2 3 -7 -2 -11 -11z"/>
<path d="M6630 3710 c0 -6 7 -10 15 -10 8 0 15 2 15 4 0 2 -7 6 -15 10 -8 3
-15 1 -15 -4z"/>
<path d="M6665 3650 c-3 -5 1 -10 10 -10 9 0 13 5 10 10 -3 6 -8 10 -10 10 -2
0 -7 -4 -10 -10z"/>
<path d="M2910 2696 c0 -3 14 -12 30 -21 17 -9 30 -13 30 -11 0 3 -13 12 -30
21 -16 9 -30 13 -30 11z"/>
<path d="M4040 2140 c-8 -4 -26 -13 -40 -19 -20 -9 -12 -10 45 -6 179 12 275
22 281 28 10 10 -268 8 -286 -3z"/>
</g>
</svg>
